<svg xmlns="http://www.w3.org/2000/svg" viewBox="0 0 425.2 336.38"><defs><style>.cls-1{isolation:isolate;}.cls-2{fill:none;}.cls-3{fill:#ec814f;}.cls-26,.cls-3{mix-blend-mode:multiply;}.cls-25,.cls-4{fill:#fff;}.cls-5{fill:#54beeb;}.cls-6{fill:#9dd6f3;}.cls-7{opacity:0.48;}.cls-8{fill:#d47600;}.cls-9{fill:#fccc00;}.cls-10{opacity:0.5;}.cls-11{fill:#c3682b;}.cls-12{fill:#d98851;}.cls-13{fill:#541c0a;}.cls-14{fill:#161004;}.cls-15{fill:#f29f00;}.cls-16{fill:#393029;}.cls-17{fill:#705d4e;}.cls-18{fill:#211705;}.cls-19{fill:#f3f4f5;}.cls-20{fill:#3b2f21;}.cls-21{fill:#f1a38c;}.cls-22{fill:#63c2ec;}.cls-23,.cls-26{fill:#b6e0f6;}.cls-24{fill:#cae8f8;}.cls-25,.cls-35{mix-blend-mode:soft-light;}.cls-26{opacity:0.56;}.cls-27{fill:#ec7c00;}.cls-28{fill:#f19800;}.cls-29{fill:#482400;}.cls-30{fill:#f8bc00;}.cls-31{fill:#b0afb5;}.cls-32{fill:#434041;}.cls-33{opacity:0.81;}.cls-34{fill:#ec8b89;}.cls-36{fill:#f6f5f5;}.cls-37{fill:#f5bea6;}</style></defs><g class="cls-1"><g id="Capa_1" data-name="Capa 1"><rect class="cls-2" width="425.2" height="336.38"/><path class="cls-3" d="M379.33,205.11a9.46,9.46,0,0,0,1.68.15,9.75,9.75,0,0,0,8.19-4.43.83.83,0,0,0,.08-.12l.1-.17a9.8,9.8,0,0,0,3.19-14.71,9.82,9.82,0,0,0-4.8-7.43c-.61-.35-1.22-.69-1.86-1-.12-.77-.27-1.54-.43-2.31,4.86-7.77,10.94-21.12,4.37-32a9.25,9.25,0,0,0-5.65-4.19,41.67,41.67,0,0,0-9.52-1.07,33.19,33.19,0,0,0-16.05,3.78,40.09,40.09,0,0,0-7-2.27,38.21,38.21,0,0,0-7.44-.87,34.17,34.17,0,0,0-14.49-10.93c3.74-11.08,8.21-24.12,10.81-31.09,4.73-12.64,2.49-23.16-6-28.13a122.79,122.79,0,0,0-28.77-12c-8-2.27-11.1-3.13-12.3-3.45a4.67,4.67,0,0,0-.5-.14,48.62,48.62,0,0,0-10-1.78h-.22c-1.78,0-3.81.18-6,.34-1.7.12-3.45.25-5,.31h-.78c-.92,0-2.34,0-3.05-.07-.24,0-.49,0-.77,0-2-.29-4.92-1-7.47-1.61-2.09-.5-4.07-1-5.79-1.31a12.59,12.59,0,0,0-2.28-.19,21.77,21.77,0,0,0-3.16.25,80.7,80.7,0,0,0-18,3.69c-13.31,4.41-22.67,8.52-28.62,12.59l-.78.53a18,18,0,0,0-10.34-3.21c-11.11,0-24.27,6.46-28.21,24.56l-1.55,4.53c-4.41,5.72-13,17-16,22.33-5.53,9.76-13.38,27.69-13.71,28.45a9.24,9.24,0,0,0-.51,5.9c-1,2.13-2.11,4.5-3.32,7.08-7.76-3.69-16.15-5-23-5.68a46.36,46.36,0,0,0-14.15-3,9.28,9.28,0,0,0-1.06-.09l-1.24,0a18.55,18.55,0,0,0-4.17.36h-.06l-.14,0h0a36.61,36.61,0,0,0-19.31,11.7c-6,3.49-13.05,8.29-18.51,15.1-2.67,3.32-6.37,10.33-7.78,32.76-.72,11.5-.59,23.92,0,28.83.87,7.87,2.15,18.66,2.16,18.77a9.26,9.26,0,0,0,9.19,8.16,9.15,9.15,0,0,0,4.51-1.18c2.6-1.45,14-8.32,17.08-18.48a15,15,0,0,0,2.65,3.55,9.93,9.93,0,0,0-.46,1.43A9,9,0,0,0,72,249.56a9.22,9.22,0,0,0-.35,4.16,14.38,14.38,0,0,0-.06,8.52,9.55,9.55,0,0,0,3,4.47,12.43,12.43,0,0,0,4.28,5.18,9.47,9.47,0,0,0,3.31,1.41c.38.27.76.54,1.15.79a24.08,24.08,0,0,0,9.35,5.24,30,30,0,0,0,10.31,10.83,27.39,27.39,0,0,0,14.48,4c12,0,23.58-7.41,30.47-14.39h135.9c5.28,5.35,13.74,11.26,23,13.47a9.13,9.13,0,0,0,5.41,1.75h51.84a9.25,9.25,0,0,0,9.25-9.25v-.33q1.65-1.41,3.17-3c.17-.17.33-.34.48-.52A53.84,53.84,0,0,0,378.63,209a10.91,10.91,0,0,0-1.59-2.35c.38-.29.74-.59,1.09-.9A8.33,8.33,0,0,0,379.33,205.11Z"/><path class="cls-4" d="M372.39,198.17a9.46,9.46,0,0,0,1.68.15,9.75,9.75,0,0,0,8.19-4.43.57.57,0,0,0,.08-.13.86.86,0,0,0,.1-.16,9.8,9.8,0,0,0,3.19-14.71,9.82,9.82,0,0,0-4.8-7.43c-.6-.35-1.22-.68-1.86-1-.12-.78-.27-1.55-.43-2.31,4.86-7.78,10.94-21.13,4.37-32a9.29,9.29,0,0,0-5.65-4.19,41.67,41.67,0,0,0-9.52-1.07,33.19,33.19,0,0,0-16.05,3.78,40.09,40.09,0,0,0-7-2.27,38.21,38.21,0,0,0-7.44-.87,34.11,34.11,0,0,0-14.49-10.93c3.74-11.08,8.21-24.12,10.81-31.09,4.73-12.64,2.49-23.16-6-28.13a122.79,122.79,0,0,0-28.77-12c-8-2.27-11.1-3.13-12.3-3.45l-.5-.14A48.62,48.62,0,0,0,276,44h-.22c-1.78,0-3.81.18-6,.34-1.7.12-3.45.25-5,.32H264c-.91,0-2.33,0-3-.08-.24,0-.49,0-.77,0-2-.29-4.92-1-7.47-1.61-2.09-.5-4.07-1-5.79-1.31a12.59,12.59,0,0,0-2.28-.19,21.77,21.77,0,0,0-3.16.25,80.7,80.7,0,0,0-18,3.69c-13.31,4.41-22.67,8.52-28.62,12.59l-.78.53a18,18,0,0,0-10.34-3.21c-11.11,0-24.27,6.46-28.2,24.56L154,84.32c-4.41,5.73-13,17-16,22.33-5.53,9.76-13.38,27.69-13.71,28.45a9.31,9.31,0,0,0-.51,5.9c-1,2.13-2.1,4.5-3.32,7.08-7.76-3.69-16.15-5-23-5.68a46.36,46.36,0,0,0-14.15-3,9.28,9.28,0,0,0-1.06-.09l-1.24,0a17.93,17.93,0,0,0-4.17.36H76.8l-.14,0h0a36.61,36.61,0,0,0-19.31,11.7c-6,3.49-13.05,8.29-18.51,15.1-2.67,3.32-6.37,10.33-7.78,32.77-.72,11.49-.59,23.91,0,28.82.87,7.87,2.15,18.66,2.16,18.77A9.26,9.26,0,0,0,42.36,255a9.15,9.15,0,0,0,4.51-1.18c2.6-1.44,14-8.32,17.08-18.48a15.29,15.29,0,0,0,2.65,3.55,9.93,9.93,0,0,0-.46,1.43A9,9,0,0,0,65,242.62a9.22,9.22,0,0,0-.35,4.16,14.31,14.31,0,0,0-.05,8.52,9.53,9.53,0,0,0,3,4.48A12.47,12.47,0,0,0,71.87,265a9.47,9.47,0,0,0,3.31,1.41c.38.27.76.54,1.15.79a24.15,24.15,0,0,0,9.35,5.24A30,30,0,0,0,96,283.22a27.39,27.39,0,0,0,14.48,4c12,0,23.58-7.41,30.47-14.4h135.9c5.28,5.36,13.74,11.27,23,13.49a9.2,9.2,0,0,0,5.42,1.74h51.83a9.25,9.25,0,0,0,9.25-9.25v-.33q1.65-1.41,3.17-3c.17-.17.33-.35.48-.52a53.84,53.84,0,0,0,1.68-72.91,10.91,10.91,0,0,0-1.59-2.35c.38-.29.74-.59,1.09-.9A7.83,7.83,0,0,0,372.39,198.17Z"/><path class="cls-5" d="M320.06,152.75c5.23,27.52-36.39,58.55-93,69.32s-106.7-2.81-111.94-30.33,36.39-58.55,93-69.32S314.82,125.23,320.06,152.75Z"/><path class="cls-6" d="M305.7,157.8c4.67,24.59-32.52,52.33-83.09,61.95s-95.35-2.51-100-27.1,32.53-52.33,83.08-62S301,133.21,305.7,157.8Z"/><path class="cls-4" d="M146.39,148a4.58,4.58,0,0,1,4.55-4.55h20.22a18.32,18.32,0,0,1,7.92,1.67,19.32,19.32,0,0,1,6,4.38,20.2,20.2,0,0,1,3.9,6.1,17.75,17.75,0,0,1,1.38,6.78,18.75,18.75,0,0,1-1.38,7,19.34,19.34,0,0,1-3.9,6.14,19.1,19.1,0,0,1-6,4.3,18.6,18.6,0,0,1-7.92,1.62h-9v16.25a4.58,4.58,0,0,1-4.55,4.55h-6.66a4.58,4.58,0,0,1-4.55-4.55Zm15.76,18.44h8.28a3.55,3.55,0,0,0,2.56-1.18,3.88,3.88,0,0,0,1.18-2.88,3.69,3.69,0,0,0-1.1-2.72,3.6,3.6,0,0,0-2.64-1.1h-8.28Z"/><path class="cls-4" d="M230.78,143.47a4.58,4.58,0,0,1,4.54,4.55v6a4.58,4.58,0,0,1-4.54,4.55h-22.5v5.93h20.95A4.44,4.44,0,0,1,233.7,169v6a4.46,4.46,0,0,1-1.3,3.21,4.26,4.26,0,0,1-3.17,1.34H208.28v7.71H232a4.42,4.42,0,0,1,3.21,1.3,4.26,4.26,0,0,1,1.34,3.17v6a4.58,4.58,0,0,1-4.55,4.55H197.07a4.58,4.58,0,0,1-4.55-4.55V148a4.58,4.58,0,0,1,4.55-4.55Z"/><path class="cls-4" d="M283.49,143.47A4.58,4.58,0,0,1,288,148v6a4.58,4.58,0,0,1-4.54,4.55H272.11v39.15a4.56,4.56,0,0,1-4.54,4.55h-6.66a4.58,4.58,0,0,1-4.55-4.55V158.58H245a4.58,4.58,0,0,1-4.55-4.55v-6a4.58,4.58,0,0,1,4.55-4.55Z"/><g class="cls-7"><path class="cls-6" d="M160.28,198.8h-6.66a4.58,4.58,0,0,1-4.55-4.55V144.54a5.09,5.09,0,0,1,.05-.69,4.69,4.69,0,0,0-1.39,1,4.41,4.41,0,0,0-1.34,3.21v49.71a4.58,4.58,0,0,0,4.55,4.55h6.66a4.59,4.59,0,0,0,4.5-3.86A4.43,4.43,0,0,1,160.28,198.8Z"/><path class="cls-6" d="M175.67,161.81a4,4,0,0,0,1.17-2.89,3.69,3.69,0,0,0-1.09-2.72,3.6,3.6,0,0,0-2.64-1.1h-6.46c-3.46,0-4.46,3.48-4.46,3.48h8.24a3.6,3.6,0,0,1,2.64,1.1,3.69,3.69,0,0,1,1.1,2.72c0,.13,0,.27,0,.4A4.23,4.23,0,0,0,175.67,161.81Z"/><path class="cls-6" d="M181.76,176.38a18.67,18.67,0,0,1-7.92,1.63h-7c-3,0-4.67,3.47-4.67,3.47h9a18.6,18.6,0,0,0,7.92-1.62,19,19,0,0,0,8.53-7.58A19.32,19.32,0,0,1,181.76,176.38Z"/><path class="cls-6" d="M231.91,176.06H214.24c-3.74,0-5.92,3.48-5.92,3.48h20.91a4.26,4.26,0,0,0,3.17-1.34,4.48,4.48,0,0,0,1.24-2.48A4.48,4.48,0,0,1,231.91,176.06Z"/><path class="cls-6" d="M234.67,198.8H199.75a4.58,4.58,0,0,1-4.55-4.55V144.54a5.09,5.09,0,0,1,.05-.69,4.57,4.57,0,0,0-1.39,1,4.41,4.41,0,0,0-1.34,3.21v49.71a4.58,4.58,0,0,0,4.55,4.55H232a4.59,4.59,0,0,0,4.5-3.86A4.43,4.43,0,0,1,234.67,198.8Z"/><path class="cls-6" d="M212.37,155.1c-2.54,0-4,3.48-4,3.48h22.42a4.59,4.59,0,0,0,4.49-3.86,4.27,4.27,0,0,1-1.82.38Z"/><path class="cls-6" d="M270.24,198.8h-6.66a4.58,4.58,0,0,1-4.55-4.55V155.1H247.66a4.58,4.58,0,0,1-4.55-4.55v-6a5.06,5.06,0,0,1,.06-.69,4.57,4.57,0,0,0-1.39,1,4.41,4.41,0,0,0-1.34,3.21v6a4.58,4.58,0,0,0,4.55,4.55h11.37v39.15a4.58,4.58,0,0,0,4.55,4.55h6.66a4.57,4.57,0,0,0,4.49-3.86A4.43,4.43,0,0,1,270.24,198.8Z"/><path class="cls-6" d="M286.16,155.1H276c-2.61,0-3.71,3.48-3.71,3.48h11.17a4.38,4.38,0,0,0,3.2-1.34,4.33,4.33,0,0,0,1.29-2.52A4.24,4.24,0,0,1,286.16,155.1Z"/></g><path class="cls-8" d="M320.61,234.58a25.64,25.64,0,0,0,5.42-8.39,28.44,28.44,0,0,0-1.52-24,21.29,21.29,0,0,0-7.56-8.34,18.18,18.18,0,0,0-9.65-2.65c-8.89,0-18,5.9-23.41,11.18a88.68,88.68,0,0,1-13.78,3.21H136.57a20.76,20.76,0,0,0-2.11-2.64c-5.31-5.42-14.77-11.75-24-11.75a18.18,18.18,0,0,0-9.65,2.65,21.29,21.29,0,0,0-7.56,8.34,28.44,28.44,0,0,0-1.52,24,25.64,25.64,0,0,0,5.42,8.39A25.7,25.7,0,0,0,91.74,243a28.46,28.46,0,0,0,1.52,24,21.29,21.29,0,0,0,7.56,8.34,18.3,18.3,0,0,0,9.65,2.65c9.22,0,18.68-6.33,24-11.75a25.14,25.14,0,0,0,2-2.46l.14-.19H281.2a20.09,20.09,0,0,0,2.12,2.65c5.3,5.42,14.76,11.75,24,11.75a18.27,18.27,0,0,0,9.65-2.65,21.36,21.36,0,0,0,7.56-8.34A28.46,28.46,0,0,0,326,243,25.7,25.7,0,0,0,320.61,234.58Z"/><path class="cls-9" d="M309,234.58c10.95-3.6,16.25-17.54,9.9-29.4-8-14.94-24.5-4.43-31,2.22-1.68,1.71-15.62,4.56-17.65,4.56H134.52c-1.92,0-3-2.85-4.63-4.56-6.5-6.65-23-17.16-31-2.22-6.35,11.86-1,25.8,9.9,29.4-11,3.6-16.25,17.54-9.9,29.39,8,14.94,24.5,4.43,31-2.21,1.68-1.71,2.88-4.56,4.92-4.56H283.25c1.92,0,2.95,2.85,4.63,4.56,6.5,6.64,23,17.15,31,2.21C325.23,252.12,319.93,238.18,309,234.58Z"/><path class="cls-4" d="M173.26,238.86a10.54,10.54,0,0,0-1.79-3.12,10,10,0,0,0-2.69-2.32,42.35,42.35,0,0,0-5.82-2.49l-1.68-.47c-.57-.14-1.17-.29-1.79-.46a12.21,12.21,0,0,1-1.71-.6,4.4,4.4,0,0,1-1.29-.86,1.71,1.71,0,0,1-.5-1.26c0-.57.37-1,1.11-1.18a8.38,8.38,0,0,1,2.42-.33c1,0,3.77.58,3.77,2.39,0,1.49.79,1.8,1.49,1.8h6.65a1.94,1.94,0,0,0,1.57-1.8,10.29,10.29,0,0,0-.6-3.27,10.87,10.87,0,0,0-2.14-4.07,11.58,11.58,0,0,0-4.15-3.12,15.38,15.38,0,0,0-6.59-1.24,17.39,17.39,0,0,0-5,.71,12.88,12.88,0,0,0-4.23,2.09,10.75,10.75,0,0,0-3,3.42,9.36,9.36,0,0,0-1.13,4.65,10.53,10.53,0,0,0,3.67,8.38,14.28,14.28,0,0,0,3.78,2.34,24,24,0,0,0,4.37,1.41l2,.48a12.75,12.75,0,0,1,2,.68,5,5,0,0,1,1.49,1,1.93,1.93,0,0,1,.58,1.39,1.76,1.76,0,0,1-1.29,1.78,8.66,8.66,0,0,1-3,.48c-1.41,0-4.63-.76-4.63-3.12a2.83,2.83,0,0,0-2.82-2.82h-4.13a2.83,2.83,0,0,0-2.82,2.82c0,2.08.41,2.52,1.21,4.23a13.7,13.7,0,0,0,3.2,4.38,14.6,14.6,0,0,0,4.58,2.82,14.8,14.8,0,0,0,5.41,1,22.74,22.74,0,0,0,5.64-.65,12.5,12.5,0,0,0,4.45-2.07,9.48,9.48,0,0,0,2.94-3.59,12.06,12.06,0,0,0,1.06-5.31A11.8,11.8,0,0,0,173.26,238.86Z"/><path class="cls-4" d="M183.37,217.27a2.61,2.61,0,0,1,2,.83,2.73,2.73,0,0,1,.81,2v9.72h9.94v-9.72a2.72,2.72,0,0,1,.8-2,2.64,2.64,0,0,1,2-.83H203a2.83,2.83,0,0,1,2.82,2.81v30.81a2.83,2.83,0,0,1-2.82,2.82h-4.13a2.67,2.67,0,0,1-2-.83,2.76,2.76,0,0,1-.8-2V239.16h-9.94v11.73a2.76,2.76,0,0,1-.81,2,2.65,2.65,0,0,1-2,.83h-4.13a2.83,2.83,0,0,1-2.82-2.82V220.08a2.83,2.83,0,0,1,2.82-2.81Z"/><path class="cls-4" d="M248.34,220.08a2.83,2.83,0,0,1,2.82-2.81h12.53a11.36,11.36,0,0,1,4.91,1,12,12,0,0,1,3.75,2.72,12.43,12.43,0,0,1,2.41,3.77,11.07,11.07,0,0,1,.86,4.2,11.68,11.68,0,0,1-.86,4.36,11.84,11.84,0,0,1-6.16,6.47,11.65,11.65,0,0,1-4.91,1h-5.58v10.07a2.85,2.85,0,0,1-2.82,2.82h-4.13a2.83,2.83,0,0,1-2.82-2.82Zm9.77,11.43h5.13a2.18,2.18,0,0,0,1.58-.73,2.41,2.41,0,0,0,.73-1.79,2.25,2.25,0,0,0-.68-1.68,2.18,2.18,0,0,0-1.63-.68h-5.13Z"/><path class="cls-4" d="M241.94,244.13c-2.1-4.58-5.67-13.25-13.62-13.25s-11.4,8.67-13.51,13.25c-2,4.33.21,10.18,4.61,10.18,5.6,0,6.39-3.17,9-3.22s3.36,3.22,9,3.22C241.74,254.31,243.94,248.46,241.94,244.13Z"/><path class="cls-4" d="M246.44,231.69c0-2.69-2.18-6.73-3.89-6.73-1.91,0-3.84,4-3.84,6.73,0,2.21,1.63,4.86,3.84,4.95h0C244.81,236.55,246.44,233.9,246.44,231.69Z"/><path class="cls-4" d="M218,231.69c0-2.69-2.17-6.73-3.88-6.73-1.91,0-3.84,4-3.84,6.73,0,2.21,1.63,4.86,3.84,4.95h0C216.42,236.55,218,233.9,218,231.69Z"/><path class="cls-4" d="M237.78,224.31c0-2.69-2.18-6.73-3.89-6.73-1.91,0-3.84,4-3.84,6.73,0,2.2,1.63,4.86,3.84,4.94h.05C236.15,229.17,237.78,226.51,237.78,224.31Z"/><path class="cls-4" d="M226.7,224.31c0-2.69-2.17-6.73-3.88-6.73-1.91,0-3.84,4-3.84,6.73,0,2.2,1.63,4.86,3.84,4.94h0C225.08,229.17,226.7,226.51,226.7,224.31Z"/><g class="cls-10"><path class="cls-9" d="M168.07,251.62a23.11,23.11,0,0,1-5.64.65,14.64,14.64,0,0,1-5.41-1,14.43,14.43,0,0,1-4.58-2.81,13.83,13.83,0,0,1-3.19-4.38c-.81-1.71-1.21-2.15-1.21-4.23a3,3,0,0,1,.05-.52,2.82,2.82,0,0,0-2.67,2.81c0,2.08.41,2.52,1.21,4.23a13.7,13.7,0,0,0,3.2,4.38,14.6,14.6,0,0,0,4.58,2.82,14.8,14.8,0,0,0,5.41,1,22.74,22.74,0,0,0,5.64-.65,12.5,12.5,0,0,0,4.45-2.07,9.26,9.26,0,0,0,1.77-1.71A13.12,13.12,0,0,1,168.07,251.62Z"/><path class="cls-9" d="M165.91,225.87c0-1.81-2.8-2.39-3.78-2.39a7.14,7.14,0,0,0-2.41.33,4.84,4.84,0,0,0-3,2.42,9.45,9.45,0,0,1,2.79-.46c.94,0,3.6.55,3.76,2.24,0,.28-.14,1.94,1.55,1.94h6.6a1.94,1.94,0,0,0,1.57-1.8c0-.18,0-.34,0-.49H167.4C166.69,227.67,165.91,227.36,165.91,225.87Z"/><path class="cls-9" d="M149.9,235.71a14.31,14.31,0,0,0,1.78,1.31,21.38,21.38,0,0,0,3.15,1.53,22.33,22.33,0,0,0,3.22.91l2,.48a12.75,12.75,0,0,1,2,.68,5,5,0,0,1,1.49,1,1.85,1.85,0,0,1,.56,1.23,6.66,6.66,0,0,0,1.35-.35,1.75,1.75,0,0,0,1.28-1.78,1.92,1.92,0,0,0-.57-1.39,5.14,5.14,0,0,0-1.49-1,11.9,11.9,0,0,0-2-.68q-1.08-.27-2-.48a23.8,23.8,0,0,1-4.38-1.41,14.23,14.23,0,0,1-3.77-2.34,10.69,10.69,0,0,1-2.67-3.5,11,11,0,0,1-1-4.88,9.36,9.36,0,0,1,1.13-4.65,10.39,10.39,0,0,1,1.15-1.68,8.72,8.72,0,0,0-.8.55,10.75,10.75,0,0,0-3,3.42,9.36,9.36,0,0,0-1.13,4.65,10.53,10.53,0,0,0,3.67,8.38Z"/><path class="cls-9" d="M198.7,227.51V217.8a3.07,3.07,0,0,1,.05-.53,2.65,2.65,0,0,0-1.86.83,2.72,2.72,0,0,0-.8,2v9.76S198.7,228.83,198.7,227.51Z"/><path class="cls-9" d="M205.61,251.42h-4.12a2.67,2.67,0,0,1-2-.83,2.76,2.76,0,0,1-.81-2V236.87h-9.93c-1.72,0-2.57,2.29-2.57,2.29h9.89v11.73a2.76,2.76,0,0,0,.8,2,2.67,2.67,0,0,0,2,.83H203a2.74,2.74,0,0,0,2-.83,2.79,2.79,0,0,0,.78-1.47Z"/><path class="cls-9" d="M186,251.42h-4.13A2.83,2.83,0,0,1,179,248.6V217.8a4.55,4.55,0,0,1,0-.53,2.84,2.84,0,0,0-2.66,2.81v30.81a2.83,2.83,0,0,0,2.82,2.82h4.13a2.65,2.65,0,0,0,2-.83,2.77,2.77,0,0,0,.77-1.47Z"/><path class="cls-9" d="M265.85,229.22a2.2,2.2,0,0,0,1.59-.73,2.44,2.44,0,0,0,.73-1.78,2.25,2.25,0,0,0-.68-1.69,2.2,2.2,0,0,0-1.64-.68h-5.13c-1.31,0-2.53,2.29-2.53,2.29h5.05a2.18,2.18,0,0,1,1.63.68,2.25,2.25,0,0,1,.68,1.68,1.69,1.69,0,0,1,0,.23Z"/><path class="cls-9" d="M271.21,237.52a11.42,11.42,0,0,1-4.9,1h-5.59c-1.14,0-2.61,2.29-2.61,2.29h5.58a11.65,11.65,0,0,0,4.91-1,12,12,0,0,0,3.75-2.67c.14-.15.28-.31.41-.47A10.93,10.93,0,0,1,271.21,237.52Z"/><path class="cls-9" d="M257.9,251.42h-4.12a2.71,2.71,0,0,1-2-.83,2.74,2.74,0,0,1-.83-2V217.8a3.08,3.08,0,0,1,0-.53,2.73,2.73,0,0,0-1.83.83,2.67,2.67,0,0,0-.83,2v30.81a2.83,2.83,0,0,0,2.82,2.82h4.13a2.71,2.71,0,0,0,2-.83,2.74,2.74,0,0,0,.79-1.47Z"/><path class="cls-9" d="M239.18,251.26c-5.6,0-6.39-3.18-9-3.23s-3.36,3.23-9,3.23c-4.4,0-6.6-5.85-4.6-10.19.6-1.31,1.31-3,2.2-4.64a46.15,46.15,0,0,0-4.06,7.7c-2,4.33.2,10.18,4.61,10.18,5.59,0,6.39-3.17,9-3.22s3.36,3.22,9,3.22c2.48,0,4.27-1.86,5-4.27A4.6,4.6,0,0,1,239.18,251.26Z"/><path class="cls-9" d="M244.44,233.58h0c-2.22-.08-3.84-2.74-3.84-5a9,9,0,0,1,.6-3,9.47,9.47,0,0,0-2.47,6.08c0,2.21,1.63,4.86,3.85,4.95h0c1.83-.08,3.25-1.89,3.7-3.77A3.14,3.14,0,0,1,244.44,233.58Z"/><path class="cls-9" d="M216,233.58h0c-2.21-.08-3.84-2.74-3.84-5a9.25,9.25,0,0,1,.6-3,9.52,9.52,0,0,0-2.46,6.08c0,2.21,1.63,4.86,3.85,4.95h0c1.82-.08,3.25-1.89,3.69-3.77A3.14,3.14,0,0,1,216,233.58Z"/><path class="cls-9" d="M235.78,226.2h0c-2.22-.08-3.85-2.74-3.85-4.95a9,9,0,0,1,.61-3,9.52,9.52,0,0,0-2.46,6.08c0,2.2,1.62,4.86,3.84,4.94h0c1.83-.07,3.25-1.89,3.7-3.76A3.14,3.14,0,0,1,235.78,226.2Z"/><path class="cls-9" d="M224.7,226.2h0c-2.21-.08-3.84-2.74-3.84-4.95a9.25,9.25,0,0,1,.6-3,9.52,9.52,0,0,0-2.46,6.08c0,2.2,1.63,4.86,3.85,4.94h0c1.83-.07,3.25-1.89,3.69-3.76A3.14,3.14,0,0,1,224.7,226.2Z"/></g><path class="cls-11" d="M242.55,50.82a71.88,71.88,0,0,0-16.17,3.28c-9.54,3.16-20.15,7.23-26.32,11.45-5.47,3.73-7.51,6.79-6.25,12.6,2.2,10.13,7.35,34.8,10.1,48,1.09,5.27,4.24,7.58,7.52,5.44,6.33-4.14,15.8-12,17.11-22.82C230.53,92.43,242.55,50.82,242.55,50.82Z"/><path class="cls-12" d="M294.58,96.55,291.8,64.22l-8.06-9.52s-6.11-1.53-7.83-1.49c-4.16.08-11.36,1-15.51.62v0c-4.16-.32-11.11-2.39-15.21-3.16-1.68-.32-12.28,1.16-17.48,8.25-4.79,6.55-8,31.45-8,31.45-3,4.54-7.92,19.34.4,26,13.43,10.69,16,18.21,28.46,19.24l5.08.42v0l5.08.41c12.48,1,16.23-6,31.23-14.31C299.22,116.93,296.76,101.52,294.58,96.55Z"/><path class="cls-4" d="M264.25,100.31l.21-46.45c-1,0-3,0-4-.08a20.71,20.71,0,0,1-3.88-.49l-7.63,45.95c-9.59,1.32-18.58,6.4-19.22,14.11-.38,4.62,5,15.31,8.22,18.74a21.5,21.5,0,0,0,10.53,3.45l5.09.42v0l5.08.42a21.37,21.37,0,0,0,11-1.68c3.77-2.85,11.06-14.4,11.44-19C281.67,108,273.53,102.69,264.25,100.31Z"/><path class="cls-13" d="M283.09,91.69c-.22,2.7-1.79,4.77-3.51,4.63s-2.92-2.44-2.7-5.14,1.8-4.78,3.51-4.63S283.31,89,283.09,91.69Z"/><path class="cls-13" d="M238,88c-.22,2.7-1.8,4.77-3.51,4.63s-2.92-2.45-2.7-5.15,1.79-4.77,3.51-4.63S238.22,85.27,238,88Z"/><path class="cls-11" d="M283.39,54.62s.42.07,12.88,3.6a114.19,114.19,0,0,1,26.6,11.11c5.46,3.2,4.1,11.27,2,16.91-4,10.79-12.28,35.38-15.93,46.32-1.11,3.35-5.34,4.06-9.52,1.39-6.35-4-14.19-11.12-13.37-21,2-24.42,2.62-32.37,3.72-45.69C290.23,61.54,283.39,54.62,283.39,54.62Z"/><path class="cls-13" d="M243,97.44c1.13-3.38,6.82-3.73,13.87-3.15,8.53.7,12.56,1.88,13,5.37.49,4.09-8.13,10.36-14.75,9.81C249.69,109,241.61,101.52,243,97.44Z"/><path class="cls-13" d="M284,116.08a.15.15,0,0,0-.2,0h0a49.56,49.56,0,0,1-7.12,5.37,27.64,27.64,0,0,1-3.94,2,12.15,12.15,0,0,1-4.16,1,6.9,6.9,0,0,1-1,0,9,9,0,0,1-1-.18,11.71,11.71,0,0,1-2-.69,14.72,14.72,0,0,1-3.52-2.35,22.14,22.14,0,0,1-2.88-3.16c-.43-.57-.83-1.16-1.22-1.76-.19-.3-.37-.61-.55-.92s-.35-.63-.48-.9a1.25,1.25,0,0,0-.4-.46c-.1-.07.89-5.49.89-5.49l-2.21-.18s-.23,5.68-.42,5.93v0c-.19.25-.42.55-.64.81s-.45.54-.69.81c-.48.53-1,1-1.49,1.54a22,22,0,0,1-3.37,2.64,14.48,14.48,0,0,1-3.85,1.73,10.4,10.4,0,0,1-2.07.34,9.2,9.2,0,0,1-1,0h-.26l-.24,0-.51-.08a12.5,12.5,0,0,1-3.93-1.66,27.53,27.53,0,0,1-3.55-2.65,49.31,49.31,0,0,1-6.13-6.46h0a.2.2,0,0,0-.26,0,.19.19,0,0,0,0,.27,48.74,48.74,0,0,0,5.81,6.89,28.61,28.61,0,0,0,3.51,3,13.58,13.58,0,0,0,4.27,2.08l.61.14.32,0,.15,0h.15c.41,0,.82.06,1.22.06a13.19,13.19,0,0,0,2.43-.26,16.09,16.09,0,0,0,4.47-1.7,24.9,24.9,0,0,0,3.87-2.68c.59-.5,1.17-1,1.72-1.57l.41-.43c.12.16.22.32.34.49q.67.95,1.44,1.83a24.33,24.33,0,0,0,3.38,3.27,16.17,16.17,0,0,0,4.13,2.4,12.48,12.48,0,0,0,2.34.65,9.9,9.9,0,0,0,1.22.14,8.55,8.55,0,0,0,1.24,0,13.4,13.4,0,0,0,4.54-1.36,27.64,27.64,0,0,0,3.94-2.34,48.69,48.69,0,0,0,6.85-5.86A.13.13,0,0,0,284,116.08Z"/><path class="cls-14" d="M158,130.05l0-.06,1.91-4.6a1.82,1.82,0,0,1,.37-.56,1.73,1.73,0,0,1,2.44,0,1.71,1.71,0,0,1,0,2.43l-2.66,2.68c1.39.3,2.77.69,4.12,1.12,1.52.49,3,1,4.51,1.66a.54.54,0,0,1,.28-.11l.24,0a7.58,7.58,0,0,1,1.84.09c.61.07,1.22.15,1.83.26l.18,0a.24.24,0,0,1,.13.05l3.16,2.32a.28.28,0,0,1,.09.35.29.29,0,0,1-.38.12l-3.28-1.7c-.58.09-1.15.17-1.73.24l-.68.07,1.44,2.42a.46.46,0,0,1-.14.62.45.45,0,0,1-.63-.14l-1.7-2.65-3.63,3.59a.33.33,0,0,1-.41,0,.32.32,0,0,1-.09-.45l2.68-4c-1.43-.26-2.84-.6-4.23-1a41.1,41.1,0,0,1-5.26-1.76A.8.8,0,0,1,158,130.05Z"/><path class="cls-14" d="M169.16,125.73l0,0,1.9-4.6a1.72,1.72,0,1,1,2.82,1.87l-2.67,2.68c1.4.3,2.77.69,4.13,1.12,1.52.49,3,1,4.5,1.66a.65.65,0,0,1,.28-.12l.24,0a7.55,7.55,0,0,1,1.84.09c.61.06,1.22.15,1.84.25l.17,0a.31.31,0,0,1,.13.06l3.17,2.31a.28.28,0,0,1,.08.35.27.27,0,0,1-.38.12L184,129.78c-.58.09-1.15.17-1.73.23l-.68.08,1.45,2.42a.46.46,0,0,1-.78.48l-1.69-2.65-3.64,3.58a.32.32,0,0,1-.41,0,.32.32,0,0,1-.09-.45l2.68-4c-1.43-.25-2.83-.6-4.23-1a38.2,38.2,0,0,1-5.26-1.76A.8.8,0,0,1,169.16,125.73Z"/><path class="cls-9" d="M183.73,64.48c-5.85,0-16.24,2.83-19.27,17.77l-5,14.5s-34,53.83-34.56,69.71a196.32,196.32,0,0,0,13.65-16.63c15.2-21.6,35.84-19.14,42.18-29,8-12.52,6.23-24.39,6.23-30.14s5.67-11,5.67-16.39C192.67,68.5,188.89,64.48,183.73,64.48Z"/><path class="cls-8" d="M138.1,132.05s-4.58,10.07-11.73,25.14c-6.31,13.29-9.2,35.5-9.2,35.5s3.26-12.18,17.37-36.78c7-12.29,19.15-20.94,23.42-32.95Z"/><path class="cls-15" d="M162.72,88.14S149.54,105,146,111.21c-5.36,9.45-13.28,27.59-13.28,27.59a56.78,56.78,0,0,0,25.16-14.05C164.73,118.15,188.17,95.63,162.72,88.14Z"/><path class="cls-14" d="M190.3,73.84s1.45,4.13,4.56,1.7C194.86,75.54,194,72.65,190.3,73.84Z"/><path class="cls-16" d="M187.79,71.88l3.32-3.25a7.34,7.34,0,0,1,4.21,8.3s-.52-2.43-2.65-2.62S188.68,74.88,187.79,71.88Z"/><path class="cls-4" d="M181.53,70.61a2.72,2.72,0,1,0,2.72-2.72A2.71,2.71,0,0,0,181.53,70.61Z"/><path class="cls-16" d="M183.18,70.61a1.49,1.49,0,1,0,1.49-1.49A1.49,1.49,0,0,0,183.18,70.61Z"/><path class="cls-17" d="M130.06,238.17c.6,0,1.1-1.25,1.1-1.25-2.36.06-4.64-2.67-4.64-2.67a4.25,4.25,0,0,0,2.49.13c-2.77-.74-6.47-5.56-7.19-6.54-.52-1.16-1.13-2.52-2-4.18-3.47-6.92-18.88-5.88-20.69-5.6-6,.92-17,3.77-18.35,11.4-.3,1.73-.47,3.16-.62,4.42-.2.58-2.44,6.9-5,8.51a4.27,4.27,0,0,0,2.34-.85s-1.39,3.27-3.67,3.91c0,0,.82,1,1.39.88l0,0c-.34.42-2.62,3.34-1.74,6.18,0,0,.49-2,1.22-2.45,0,0,.48,5.91,2.35,7.16a9.76,9.76,0,0,1-.2-2.73c2.75,5,8.91,9.24,20.07,5.71,2.12-.67,5.69-3.48,8-3.82,3.82-.57,6.34,1.34,8.56,1.37,11.81.13,16.36-5.83,17.49-11.4a9.8,9.8,0,0,1,.64,2.76c1.42-1.74.16-7.53.16-7.53.83.22,1.88,2,1.88,2C133.61,240.41,130.06,238.17,130.06,238.17Z"/><path class="cls-18" d="M117.42,234.53c.81,2,.26,4.05-.06,4.18-.62.26-3.06.49-4.06-2.5a4,4,0,0,1,1.12-4.61C115,231.36,116.6,232.56,117.42,234.53Z"/><path class="cls-18" d="M86.29,239.15c-.21,2.12.92,4,1.28,4,.65.07,3.06-.43,3.15-3.57a4,4,0,0,0-2.41-4.08C87.67,235.42,86.49,237,86.29,239.15Z"/><path class="cls-19" d="M128.17,244.61c-2.68-1.28-10.32,5-20.23-1.54l-4.92.74-.25,0-4.93.74c-7.57,9.13-16.72,5.34-18.9,7.35-3,2.8,5.63,12.84,12.52,11.82.9-.14,5.44-.57,9-2.89,1.21-.78,2.48-2.73,4.4-3.07h0l.13,0h.12c1.94-.23,3.76,1.1,5.1,1.67,2.22.92,8.53.28,9.43.14C126.52,258.53,131.89,246.41,128.17,244.61Z"/><path class="cls-20" d="M110.54,257.77a5.62,5.62,0,0,1-3.28-.89,6.34,6.34,0,0,0-.64-.3,2.58,2.58,0,0,0-1.67-.1.47.47,0,0,1-.33,0,.42.42,0,0,1-.18-.28l-1.17-7.87a.38.38,0,0,1,.32-.43.38.38,0,0,1,.43.32l1.11,7.47a3.77,3.77,0,0,1,1.74.2,5.81,5.81,0,0,1,.74.35c.85.44,2.14,1.12,3.25.7a3.66,3.66,0,0,0,1.83-2.3.38.38,0,0,1,.48-.23.39.39,0,0,1,.23.49,4.33,4.33,0,0,1-2.27,2.74A2.74,2.74,0,0,1,110.54,257.77Z"/><path class="cls-20" d="M99.82,259.36a2.48,2.48,0,0,1-.61,0,4.28,4.28,0,0,1-3-2,.38.38,0,0,1,.07-.53.39.39,0,0,1,.54.07,3.61,3.61,0,0,0,2.41,1.67c1.18.08,2.22-.94,2.91-1.61a6.59,6.59,0,0,1,.6-.55,3.62,3.62,0,0,1,1.61-.7l-1.11-7.47a.38.38,0,0,1,.32-.43.38.38,0,0,1,.43.32l1.17,7.87a.37.37,0,0,1-.1.32.39.39,0,0,1-.3.12,2.59,2.59,0,0,0-1.57.58c-.13.1-.31.28-.52.48A5.62,5.62,0,0,1,99.82,259.36Z"/><path class="cls-21" d="M97.68,244.86c.65,2.61,4.28,3.85,5.93,3.6,2-.3,4.81-2.69,4.68-5.37A11.25,11.25,0,0,0,102.2,242,8.14,8.14,0,0,0,97.68,244.86Z"/><path class="cls-17" d="M117.52,229.67s-1.4-17.79,9-15.31c1.71.41,3.46,8.18-.52,11.54s-6.66,3.09-7.26,4.37C118.79,230.27,117.53,231.05,117.52,229.67Z"/><path class="cls-21" d="M127.66,215.62c-1.76.37-3.86,2.63-5.17,5.78-1.17,2.82-1.39,5.57-.74,7.21a21.32,21.32,0,0,0,5-2.92C129.83,223.09,128.77,218,127.66,215.62Z"/><path class="cls-17" d="M84.78,234.54s-3.84-17.42-13.12-12c-1.51.89-.92,8.84,3.86,10.89s7.27,1,8.21,2.07C83.73,235.48,85.17,235.86,84.78,234.54Z"/><path class="cls-21" d="M71,224.05c1.79-.16,4.45,1.39,6.63,4,1.93,2.35,2.95,4.92,2.8,6.67a21.44,21.44,0,0,1-5.62-1.33C71.09,231.82,70.63,226.68,71,224.05Z"/><rect class="cls-22" x="305.27" y="273.87" width="51.83" height="4.94"/><path class="cls-23" d="M363.52,206.87h0c0,3.65-14.45,6.61-32.29,6.61s-32.29-3-32.29-6.61h0a44.6,44.6,0,0,0,6.34,67h51.91a44.59,44.59,0,0,0,6.33-67Z"/><path class="cls-24" d="M363.52,206.88c0,3.65-14.46,6.61-32.29,6.61s-32.29-3-32.29-6.61,14.46-6.62,32.29-6.62S363.52,203.22,363.52,206.88Z"/><path class="cls-25" d="M357.43,206.88c0,2.51-11.73,4.55-26.2,4.55s-26.2-2-26.2-4.55,11.73-4.56,26.2-4.56S357.43,204.36,357.43,206.88Z"/><path class="cls-26" d="M357.19,273.94A44.47,44.47,0,0,0,363,269c-2.83-3.06-16-5.37-31.72-5.37S302.35,266,299.51,269a45.24,45.24,0,0,0,5.77,4.93Z"/><path class="cls-27" d="M310,256.35c.29-.3.12-.74.06-1.44-.16-1.76-.68-4.17-.68-4.17a.52.52,0,0,0-.88-.38,12.44,12.44,0,0,1-4.75,2.49c-.46.12-.48.73-.16,1.08a10.46,10.46,0,0,0,3.07,1.92C308,256.51,309.64,256.73,310,256.35Z"/><path class="cls-28" d="M321.42,237s1.73-4.13,4.59-4.36c4.53-.36,8.1,3.16,12.26,3.78a7.8,7.8,0,0,0,3.9-.58,7.77,7.77,0,0,1-3.15,3.41,8.9,8.9,0,0,1-5.62,1.15c-1.61-.17-2.23,0-2.43.47-.29.7.34,2,1,2.8C332,243.63,322.85,239.51,321.42,237Z"/><path class="cls-28" d="M348.13,246.57c12.34-1.41,12.09-9.12,15.44-12a4.52,4.52,0,0,0,1.59-4.21s-1.82,2.31-7.07,2.31c-9.64,0-14.22,6.27-16.53,9.23-1.24,1.58-1.87,3.19-4.61,3.41a4.7,4.7,0,0,1-1.85-.29c-3.25-1.58-8.23-8.3-15.28-8.3-8.39,0-15.28,6.37-16.12,9.32-.05.19,1.17.21,1.17.51s-1.22.25-1.17.39c.81,2.21,7.72,9.5,16.12,9.5,7.25,0,12.26-6.65,15.45-8.3a4.39,4.39,0,0,1,1.81-.29c2.63.26,3.26,1.86,4.48,3.42,2.31,3,7,6.68,17.09,7.51,5.23.44,6.41,3.19,6.41,3.19s-.13-4.94-4-6.77C354.79,252.22,357.36,246.57,348.13,246.57Z"/><path class="cls-4" d="M312.11,243.41a2,2,0,1,1-1.95-1.94A1.95,1.95,0,0,1,312.11,243.41Z"/><path class="cls-29" d="M310.93,243.41a1.07,1.07,0,1,1-2.13,0,1.07,1.07,0,0,1,2.13,0Z"/><path class="cls-28" d="M315.91,255.82s-2.84,6.54,8.57,6.54c5.65,0,5.35-4.51,10-6,0,0-9.76,2.13-11.55-.44Z"/><path class="cls-30" d="M313.12,256.83c.18-.38-.12-.74-.41-1.38-.73-1.61-2-3.72-2-3.72a.53.53,0,0,0-1-.07,12.33,12.33,0,0,1-3.67,3.91c-.4.26-.22.85.2,1.07a8.53,8.53,0,0,0,3.39,1.06C311,257.93,312.91,257.3,313.12,256.83Z"/><path class="cls-30" d="M337.61,245.21a6.19,6.19,0,0,1-.66.09,4.53,4.53,0,0,1-1.85-.29c-3.25-1.58-8.23-8.3-15.28-8.3a17.83,17.83,0,0,0-5.05.76c-1.75,1.36-2.07,3.25-1.75,6.31s3.49,7.3,1.34,11.67a16.21,16.21,0,0,0,5.46,1c7.25,0,12.26-6.65,15.45-8.31a4.56,4.56,0,0,1,1.81-.29l.53.08Z"/><path class="cls-30" d="M341.16,243.91s4.09-5.39,8.32-7.88c4.81-2.82,5.95-.15,14.77-4.06A20.79,20.79,0,0,1,351,238.16C348.41,238.37,346.36,241,341.16,243.91Z"/><path class="cls-27" d="M359.42,257.3c-1.71-.06-6.21-3.7-9.18-6.47-2.47-2.31-8.66-2.1-10.66-2a16.83,16.83,0,0,1,1.92,2.4c2.32,3,7,6.68,17.1,7.51,5.23.44,6.41,3.19,6.41,3.19a7.34,7.34,0,0,0-.12-1C364.19,258.52,360.86,257.36,359.42,257.3Z"/><path class="cls-27" d="M314.64,255.35a1.75,1.75,0,0,0,.41-.72,1.05,1.05,0,0,0-.06-.76A3.37,3.37,0,0,1,314.64,255.35Z"/><path class="cls-27" d="M317.21,254.63a1.17,1.17,0,0,0-.45-1.28,2.73,2.73,0,0,1-.74-1,1.29,1.29,0,0,1,0-1,1.3,1.3,0,0,0-.21-1.28,4.07,4.07,0,0,0-1.3-1.27c0,.11.07.23.11.34a3.14,3.14,0,0,1,.92.93,1,1,0,0,1,.16,1,1.71,1.71,0,0,0,.08,1.28,3.66,3.66,0,0,0,.85,1.28,1,1,0,0,1,.35,1,1.89,1.89,0,0,1-.86,1l-.3.22.29.07.06-.05A2.27,2.27,0,0,0,317.21,254.63Z"/><path class="cls-27" d="M314.17,245.35a2.3,2.3,0,0,0-1-1.28L313,244l.06.33a1.86,1.86,0,0,1,.8,1,.93.93,0,0,1-.24,1c0,.11.07.22.11.33A1.28,1.28,0,0,0,314.17,245.35Z"/><path class="cls-27" d="M319.38,254.63a1.19,1.19,0,0,0-.45-1.28,2.62,2.62,0,0,1-.74-1,1.25,1.25,0,0,1,0-1,1.31,1.31,0,0,0-.22-1.28,4.22,4.22,0,0,0-1.3-1.28,2.16,2.16,0,0,1-.94-1,.92.92,0,0,1,.24-1,1.26,1.26,0,0,0,.39-1.28,2.29,2.29,0,0,0-1-1.28,2.9,2.9,0,0,1-1-1,1,1,0,0,1-.08-1,1.58,1.58,0,0,0,0-1.28,3.29,3.29,0,0,0-.86-1.28l-.05-.05c0,.1-.07.19-.1.29h0a2.53,2.53,0,0,1,.74,1,1.23,1.23,0,0,1,0,1,1.33,1.33,0,0,0,.11,1.28,3.72,3.72,0,0,0,1.19,1.28,1.88,1.88,0,0,1,.83,1,1,1,0,0,1-.32,1,1.11,1.11,0,0,0-.31,1.28,2.65,2.65,0,0,0,1.15,1.28,3.35,3.35,0,0,1,1.09,1,1.05,1.05,0,0,1,.16,1,1.71,1.71,0,0,0,.08,1.28,3.66,3.66,0,0,0,.85,1.28,1,1,0,0,1,.35,1,1.89,1.89,0,0,1-.86,1,5.72,5.72,0,0,0-.72.58l.27.05c.16-.14.33-.26.5-.39A2.27,2.27,0,0,0,319.38,254.63Z"/><path class="cls-27" d="M321.55,254.63a1.19,1.19,0,0,0-.45-1.28,2.62,2.62,0,0,1-.74-1,1.3,1.3,0,0,1,0-1,1.27,1.27,0,0,0-.21-1.28,4.13,4.13,0,0,0-1.31-1.28,2.19,2.19,0,0,1-.93-1,.94.94,0,0,1,.23-1,1.26,1.26,0,0,0,.4-1.28,2.29,2.29,0,0,0-1-1.28,2.9,2.9,0,0,1-1-1,1,1,0,0,1-.08-1,1.58,1.58,0,0,0,0-1.28,3.19,3.19,0,0,0-.87-1.28,1.09,1.09,0,0,1-.42-1,1.71,1.71,0,0,1,.77-1l.3-.24-.55.12a1.91,1.91,0,0,0-.78,1.16,1.29,1.29,0,0,0,.54,1.28,2.53,2.53,0,0,1,.74,1,1.23,1.23,0,0,1,0,1,1.31,1.31,0,0,0,.11,1.28,3.72,3.72,0,0,0,1.19,1.28,1.88,1.88,0,0,1,.83,1,1,1,0,0,1-.32,1,1.14,1.14,0,0,0-.32,1.28,2.66,2.66,0,0,0,1.16,1.28,3.35,3.35,0,0,1,1.09,1,1.05,1.05,0,0,1,.16,1,1.71,1.71,0,0,0,.08,1.28,3.66,3.66,0,0,0,.85,1.28,1,1,0,0,1,.35,1,1.93,1.93,0,0,1-.86,1,4.53,4.53,0,0,0-.88.76h.28a5.49,5.49,0,0,1,.65-.52A2.27,2.27,0,0,0,321.55,254.63Z"/><path class="cls-27" d="M323.72,254.63a1.2,1.2,0,0,0-.45-1.28,2.62,2.62,0,0,1-.74-1,1.25,1.25,0,0,1,0-1,1.34,1.34,0,0,0-.22-1.28,4.13,4.13,0,0,0-1.31-1.28,2.14,2.14,0,0,1-.93-1,.92.92,0,0,1,.23-1,1.28,1.28,0,0,0,.4-1.28,2.29,2.29,0,0,0-1-1.28,3,3,0,0,1-1-1,1.06,1.06,0,0,1-.07-1,1.58,1.58,0,0,0,0-1.28,3.19,3.19,0,0,0-.87-1.28,1.07,1.07,0,0,1-.42-1,1.71,1.71,0,0,1,.77-1,5.09,5.09,0,0,0,.67-.6l-.34,0c-.13.12-.27.22-.41.33a2.1,2.1,0,0,0-.95,1.29,1.29,1.29,0,0,0,.54,1.28,2.53,2.53,0,0,1,.74,1,1.23,1.23,0,0,1,0,1,1.31,1.31,0,0,0,.11,1.28,3.71,3.71,0,0,0,1.18,1.28,1.85,1.85,0,0,1,.84,1,1,1,0,0,1-.32,1,1.12,1.12,0,0,0-.32,1.28,2.62,2.62,0,0,0,1.16,1.28,3.45,3.45,0,0,1,1.09,1,1.08,1.08,0,0,1,.16,1,1.71,1.71,0,0,0,.08,1.28,3.66,3.66,0,0,0,.85,1.28,1,1,0,0,1,.35,1,1.9,1.9,0,0,1-.87,1,5.68,5.68,0,0,0-.71.58l.42-.08.35-.26A2.27,2.27,0,0,0,323.72,254.63Z"/><path class="cls-27" d="M325.43,253.35a2.84,2.84,0,0,1-.74-1,1.34,1.34,0,0,1,0-1,1.3,1.3,0,0,0-.21-1.28,4.24,4.24,0,0,0-1.31-1.28,2.26,2.26,0,0,1-.94-1,.94.94,0,0,1,.24-1,1.28,1.28,0,0,0,.4-1.28,2.33,2.33,0,0,0-1-1.28,3,3,0,0,1-1-1,1.06,1.06,0,0,1-.07-1,1.63,1.63,0,0,0,0-1.28,3.19,3.19,0,0,0-.87-1.28,1.07,1.07,0,0,1-.42-1,1.67,1.67,0,0,1,.77-1,5.74,5.74,0,0,0,.66-.59l-.29,0a5.46,5.46,0,0,1-.45.36,2.1,2.1,0,0,0-.95,1.29,1.31,1.31,0,0,0,.53,1.28,2.55,2.55,0,0,1,.75,1,1.23,1.23,0,0,1,0,1,1.28,1.28,0,0,0,.11,1.28,3.71,3.71,0,0,0,1.18,1.28,1.85,1.85,0,0,1,.84,1,1,1,0,0,1-.32,1,1.12,1.12,0,0,0-.32,1.28A2.62,2.62,0,0,0,323.1,249a3.45,3.45,0,0,1,1.09,1,1.08,1.08,0,0,1,.16,1,1.71,1.71,0,0,0,.08,1.28,3.52,3.52,0,0,0,.85,1.28,1,1,0,0,1,.35,1,1.48,1.48,0,0,1-.26.5l.4-.19a1.43,1.43,0,0,0,.12-.31A1.19,1.19,0,0,0,325.43,253.35Z"/><path class="cls-27" d="M326.86,252.31a1.29,1.29,0,0,1,0-1,1.3,1.3,0,0,0-.21-1.28,4.24,4.24,0,0,0-1.31-1.28,2.21,2.21,0,0,1-.94-1,.94.94,0,0,1,.24-1,1.28,1.28,0,0,0,.4-1.28,2.33,2.33,0,0,0-1-1.28,3,3,0,0,1-1-1,1.07,1.07,0,0,1-.08-1,1.58,1.58,0,0,0,0-1.28,3.19,3.19,0,0,0-.86-1.28,1.07,1.07,0,0,1-.42-1,1.67,1.67,0,0,1,.77-1l.32-.26-.28-.08-.12.09a2,2,0,0,0-.95,1.29,1.31,1.31,0,0,0,.53,1.28,2.55,2.55,0,0,1,.75,1,1.26,1.26,0,0,1,0,1,1.31,1.31,0,0,0,.11,1.28,3.62,3.62,0,0,0,1.18,1.28,1.94,1.94,0,0,1,.84,1,1,1,0,0,1-.32,1,1.12,1.12,0,0,0-.32,1.28,2.62,2.62,0,0,0,1.16,1.28,3.33,3.33,0,0,1,1.08,1,1.06,1.06,0,0,1,.17,1,1.66,1.66,0,0,0,.08,1.28,3.4,3.4,0,0,0,.85,1.28,2.61,2.61,0,0,1,.22.27l.24-.16a2.1,2.1,0,0,0-.31-.35A2.84,2.84,0,0,1,326.86,252.31Z"/><path class="cls-27" d="M329,251.27a1.3,1.3,0,0,0-.21-1.28,4.35,4.35,0,0,0-1.31-1.28,2.21,2.21,0,0,1-.94-1,.92.92,0,0,1,.24-1,1.28,1.28,0,0,0,.4-1.28,2.33,2.33,0,0,0-1-1.28,2.92,2.92,0,0,1-1-1,1.07,1.07,0,0,1-.08-1,1.58,1.58,0,0,0,0-1.28,3.19,3.19,0,0,0-.86-1.28,1.07,1.07,0,0,1-.42-1,1.3,1.3,0,0,1,.47-.8l-.25-.1a1.72,1.72,0,0,0-.49.9,1.33,1.33,0,0,0,.54,1.28,2.55,2.55,0,0,1,.75,1,1.26,1.26,0,0,1,0,1,1.31,1.31,0,0,0,.12,1.28,3.62,3.62,0,0,0,1.18,1.28,1.88,1.88,0,0,1,.83,1,1,1,0,0,1-.32,1,1.14,1.14,0,0,0-.31,1.28,2.62,2.62,0,0,0,1.16,1.28,3.33,3.33,0,0,1,1.08,1,1,1,0,0,1,.16,1,1.73,1.73,0,0,0,.09,1.28,3.74,3.74,0,0,0,.29.6l.2-.15a2.69,2.69,0,0,1-.23-.45A1.29,1.29,0,0,1,329,251.27Z"/><path class="cls-27" d="M331,250a4.22,4.22,0,0,0-1.3-1.28,2.16,2.16,0,0,1-.94-1,.92.92,0,0,1,.24-1,1.28,1.28,0,0,0,.4-1.28,2.3,2.3,0,0,0-1-1.28,2.9,2.9,0,0,1-1-1,1.07,1.07,0,0,1-.08-1,1.58,1.58,0,0,0,0-1.28,3.29,3.29,0,0,0-.86-1.28,1.07,1.07,0,0,1-.42-1h0a1.71,1.71,0,0,1-.23-.13.74.74,0,0,0,0,.14,1.29,1.29,0,0,0,.54,1.28,2.55,2.55,0,0,1,.75,1,1.26,1.26,0,0,1,0,1,1.33,1.33,0,0,0,.11,1.28,3.72,3.72,0,0,0,1.19,1.28,1.88,1.88,0,0,1,.83,1,1,1,0,0,1-.32,1,1.12,1.12,0,0,0-.31,1.28A2.65,2.65,0,0,0,329.6,249a3.35,3.35,0,0,1,1.09,1,1.05,1.05,0,0,1,.16,1,1.54,1.54,0,0,0-.08.56l.41-.34A1.31,1.31,0,0,0,331,250Z"/><path class="cls-27" d="M331.81,248.71a2.19,2.19,0,0,1-.93-1,.92.92,0,0,1,.24-1,1.26,1.26,0,0,0,.39-1.28,2.29,2.29,0,0,0-1-1.28,2.9,2.9,0,0,1-1-1,1,1,0,0,1-.08-1,1.58,1.58,0,0,0,0-1.28l0-.08-.43-.32a1.86,1.86,0,0,1,.19.4,1.23,1.23,0,0,1,0,1,1.33,1.33,0,0,0,.11,1.28,3.72,3.72,0,0,0,1.19,1.28,1.88,1.88,0,0,1,.83,1,1,1,0,0,1-.32,1,1.12,1.12,0,0,0-.31,1.28,2.65,2.65,0,0,0,1.15,1.28,3.55,3.55,0,0,1,1,1l.17-.14A4.41,4.41,0,0,0,331.81,248.71Z"/><path class="cls-27" d="M333.05,247.67a.94.94,0,0,1,.23-1,1.28,1.28,0,0,0,.4-1.28,2.29,2.29,0,0,0-1-1.28,2.9,2.9,0,0,1-1-1,1.15,1.15,0,0,1-.18-.68l-.3-.26a1.45,1.45,0,0,0,.21.94,3.72,3.72,0,0,0,1.19,1.28,1.88,1.88,0,0,1,.83,1,1,1,0,0,1-.32,1,1.12,1.12,0,0,0-.32,1.28,2.71,2.71,0,0,0,1.16,1.28l0,0,.2-.14-.19-.13A2.19,2.19,0,0,1,333.05,247.67Z"/><path class="cls-27" d="M335.45,246.63a1.28,1.28,0,0,0,.4-1.28s0-.09,0-.14l-.29-.05a1.07,1.07,0,0,1,.07.19,1,1,0,0,1-.32,1,1.12,1.12,0,0,0-.32,1.28,1.77,1.77,0,0,0,.27.49l0,0a.76.76,0,0,1,.16-.06,1.39,1.39,0,0,1-.21-.4A.92.92,0,0,1,335.45,246.63Z"/><path class="cls-27" d="M337.39,247.67a.91.91,0,0,1,.22-1v-.47l-.17.21a1.12,1.12,0,0,0-.32,1.28,1.42,1.42,0,0,0,.08.18l.29,0A.88.88,0,0,1,337.39,247.67Z"/><path class="cls-4" d="M303.13,241.68a2.95,2.95,0,1,1-2.94-3A2.94,2.94,0,0,1,303.13,241.68Z"/><path class="cls-4" d="M300.67,230.78a1,1,0,1,1-1-1A1,1,0,0,1,300.67,230.78Z"/><path class="cls-4" d="M310.05,231.86a2.81,2.81,0,1,1-2.8-2.81A2.81,2.81,0,0,1,310.05,231.86Z"/><path class="cls-4" d="M304.27,223a1.58,1.58,0,1,1-1.58-1.59A1.58,1.58,0,0,1,304.27,223Z"/><path class="cls-25" d="M356.11,214.1c-5.92,1.47-14.87,2.4-24.88,2.4s-19-.93-24.88-2.4c-7.79,3.59-12.7,8.85-12.7,14.7,0,10.83,16.83,19.61,37.58,19.61s37.58-8.78,37.58-19.61C368.81,223,363.9,217.69,356.11,214.1Z"/><path class="cls-31" d="M368.23,166.87s12.53-16.39,6.76-26c0,0-14.47-3.68-22.86,4.85C352.13,145.75,355.19,159.49,368.23,166.87Z"/><path class="cls-32" d="M364.31,162.65s8-10.41,4.3-16.5c0,0-9.2-2.33-14.52,3.09A22.43,22.43,0,0,0,364.31,162.65Z"/><path class="cls-31" d="M308.55,153.69s-4.47-20.14,4.8-26.4c0,0,14.68,2.75,18.69,14C332,141.32,323.48,152.49,308.55,153.69Z"/><path class="cls-32" d="M313.87,151.51s-2.83-12.8,3.06-16.77c0,0,9.32,1.75,11.87,8.91A22.43,22.43,0,0,1,313.87,151.51Z"/><path class="cls-31" d="M370.37,179.93c-.45,17.43-20.6,19.86-39.68,15.65s-37.15-15.32-29.41-30.91c8.82-17.78,26.74-26.49,41.37-23.26S370.91,159.39,370.37,179.93Z"/><g class="cls-33"><path class="cls-4" d="M336.85,167.22c-16.13-3.56-31,1.7-33.23,11.75a12,12,0,0,0-.27,2.79c5.54,6.61,16.27,11.37,27.34,13.82s22.72,2.65,30.46-1.13a11.18,11.18,0,0,0,.89-2.57C364.27,181.82,353,170.78,336.85,167.22Z"/></g><path class="cls-32" d="M359.52,168.17c-.51,2.29-2.1,3.89-3.56,3.57s-2.23-2.44-1.72-4.74,2.1-3.89,3.56-3.57S360,165.87,359.52,168.17Z"/><path class="cls-32" d="M321.18,159.7c-.51,2.29-2.1,3.89-3.56,3.57s-2.23-2.44-1.72-4.74,2.1-3.89,3.55-3.57S321.68,157.4,321.18,159.7Z"/><path class="cls-32" d="M344.74,176a.56.56,0,0,1-.42-.45.55.55,0,0,1,.45-.62c.18,0,18.68-2.84,31.4,4.52a.54.54,0,0,1-.54.94c-12.39-7.17-30.51-4.42-30.69-4.39Z"/><path class="cls-32" d="M377.79,185.44a.51.51,0,0,1-.17-.07c-12.47-7.87-32.08-7.8-32.28-7.8a.53.53,0,0,1-.54-.53.54.54,0,0,1,.53-.55c.2,0,20.13-.07,32.87,8a.53.53,0,0,1,.16.74A.52.52,0,0,1,377.79,185.44Z"/><path class="cls-32" d="M374,189.05a.45.45,0,0,1-.18-.07c-13.53-8.7-28.87-9.46-29-9.47a.54.54,0,0,1-.52-.56.55.55,0,0,1,.57-.52c.15,0,15.78.78,29.56,9.64a.54.54,0,0,1-.41,1Z"/><path class="cls-32" d="M366.92,190.5a.5.5,0,0,1-.2-.08c-9.38-6.61-22.84-9.55-23-9.58h0a.54.54,0,0,1-.41-.64.54.54,0,0,1,.64-.42c.13,0,13.82,3,23.38,9.76a.54.54,0,0,1-.43,1Z"/><path class="cls-32" d="M326,171.86a.64.64,0,0,1-.19-.08c-.15-.1-15.43-10.24-29.68-8.95a.54.54,0,1,1-.1-1.07c14.63-1.32,30.23,9,30.38,9.12a.54.54,0,0,1-.41,1Z"/><path class="cls-32" d="M292.05,166.5a.52.52,0,0,1-.42-.45.54.54,0,0,1,.47-.61c14.94-1.93,33,6.53,33.16,6.62a.54.54,0,0,1,.25.72.55.55,0,0,1-.72.26c-.17-.09-17.93-8.42-32.55-6.53A.4.4,0,0,1,292.05,166.5Z"/><path class="cls-32" d="M294,171.4a.57.57,0,0,1-.42-.45.54.54,0,0,1,.47-.61c16.22-2.24,30.72,3.64,30.87,3.7a.55.55,0,0,1,.29.71.54.54,0,0,1-.7.29c-.14-.06-14.39-5.83-30.32-3.63A.61.61,0,0,1,294,171.4Z"/><path class="cls-32" d="M299.78,175.67a.52.52,0,0,1-.42-.43.53.53,0,0,1,.44-.62c11.5-2.09,25.17,1,25.31,1a.54.54,0,1,1-.23,1h0c-.67-.15-13.8-3-24.85-1A.5.5,0,0,1,299.78,175.67Z"/><path class="cls-32" d="M343,176.62c-.62,2.77-4.61,4.24-8.94,3.28s-7.33-4-6.72-6.74,4.61-4.24,8.94-3.28S343.6,173.85,343,176.62Z"/><path class="cls-34" d="M329.85,186.43l-.36,1.63a2.69,2.69,0,1,0,5.26,1.16l.36-1.63a2.63,2.63,0,0,1-1.51-1.65,9.29,9.29,0,0,1-.16-3.24,9.86,9.86,0,0,1-1.48,2.78A2.13,2.13,0,0,1,329.85,186.43Z"/><g class="cls-35"><path class="cls-36" d="M331.55,191.11a11.28,11.28,0,0,1,.13-1.53q.1-.75.27-1.5c.11-.5.24-1,.38-1.48a13.22,13.22,0,0,1,.54-1.44,12.79,12.79,0,0,1-.13,1.53c-.07.51-.17,1-.28,1.5s-.23,1-.38,1.48A10.82,10.82,0,0,1,331.55,191.11Z"/></g><path class="cls-32" d="M335.55,188.26c-2.94-.65-3.08-3.75-2.7-5.47l1.83-8.28a.54.54,0,0,1,1.05.23L333.9,183c0,.15-.76,3.6,1.89,4.18,2,.46,3-.6,3.3-1.75l.46-2.1a.55.55,0,0,1,.65-.41.54.54,0,0,1,.41.64l-.47,2.11C339.77,187.39,338.2,188.85,335.55,188.26Z"/><path class="cls-32" d="M329.17,186.85c-2.65-.59-3.46-2.57-3.08-4.27l.46-2.1a.53.53,0,0,1,.64-.41h0a.53.53,0,0,1,.41.64l-.46,2.1c-.09.4-.39,2.4,2.26,3s3.44-2.85,3.47-3l1.83-8.28a.54.54,0,1,1,1.05.24L333.92,183C333.54,184.75,332.11,187.5,329.17,186.85Z"/><path class="cls-12" d="M145.27,204.28c-2.48-7.57-18.44-42.62-28-47.45-8.7-4.4-19.07-5.12-25.5-5.63,4.09,1.46,7.92,3.9,9.86,7.9,5.34,11,4.37,11.42,12.46,18.59,1.14,1,2.33,3.95,2.92,7.65,1.52,2.16,8.11,10,15.67,28,3.16,7.55,18.36,8.8,18.36,8.8S147.76,211.85,145.27,204.28Z"/><path class="cls-37" d="M132.69,213.39c3.16,7.55,18.36,8.8,18.36,8.8-3.85-4.64-26.26-42.36-31-51.06-3.33-6.13-12.31-8.76-17.35-9.79,4.17,8.86,3.89,9.7,11.39,16.35,1.14,1,2.33,3.95,2.92,7.65C118.54,187.5,125.13,195.31,132.69,213.39Z"/><path class="cls-12" d="M40.21,227c-.87-7.92-.86-46.43,5.84-54.78,6.1-7.6,15.24-12.55,20.88-15.68-3.11,3-5.59,6.83-5.7,11.28-.3,12.23.75,12.2-3.65,22.07-.62,1.4-.49,4.57.51,8.18-.48,2.6-3.25,12.43-2.66,32,.25,8.18-13.07,15.6-13.07,15.6S41.08,235,40.21,227Z"/><path class="cls-37" d="M55.43,230.13c.25,8.18-13.07,15.6-13.07,15.6,1.59-5.81,6.37-49.42,7.08-59.3.5-7,7.58-13.07,11.74-16.1-.13,9.8.48,10.45-3.6,19.6-.62,1.4-.49,4.57.51,8.18C57.61,200.71,54.84,210.54,55.43,230.13Z"/><path class="cls-12" d="M116.15,178.5c-8.16-7.51-7.2-7.92-12.64-19.4-5.12-10.8-22.81-10.85-24.82-10.4-6.61,1.48-18.3,7.84-18.49,19.79-.2,12.69,1.07,13.68-3.47,22.89-2.45,5,5.3,33.22,26.56,23.34,2.29-1.06,5.87-5.5,8.39-6,4.24-.92,7.42,2,9.95,2.07C125.08,210.94,120.22,182.25,116.15,178.5Z"/><path class="cls-13" d="M109.48,167.68c1.49,3,.84,6.37.34,6.62-.94.46-4.78,1.07-6.67-3.54-1.7-4.15.66-7.08,1.29-7.38C105.35,162.92,108,164.66,109.48,167.68Z"/><path class="cls-13" d="M57.4,179c-.11,3.36,1.87,6.15,2.43,6.17,1,0,4.79-1,4.6-6-.16-4.48-3.52-6.17-4.23-6.19C59.19,172.93,57.5,175.6,57.4,179Z"/><path class="cls-4" d="M92.86,187.33,82,148.54a15.46,15.46,0,0,0-3.11.12,22.5,22.5,0,0,0-3.09.94l6.09,40.24c-6.48,2.83-11.8,7.91-10.71,12.91.65,3,6.08,8.36,9,9.85,1.51.38,3.47,1.06,5,.31,2.72-1.3,4.37-4.28,6.25-4.69,3.08-.66,5.82,2,8.09,2,1.59,0,2.67-1.09,3.69-2.11,2.36-2.33,5.07-11.54,4.42-14.53C106.64,188.55,99.86,186.9,92.86,187.33Z"/><path class="cls-37" d="M87.47,210.35a4.43,4.43,0,0,0,8.62-1.86s-3.4-.83-4.51-.59S87.47,210.35,87.47,210.35Z"/><path class="cls-13" d="M104.63,204.58a.59.59,0,0,0-.74.4c-.61,2-1.5,3.28-2.65,3.81-1.7.79-3.81-.14-5.2-.75a11,11,0,0,0-1.2-.48,5.86,5.86,0,0,0-2.77-.13l-2.53-11.68s0,0,0,0a6.51,6.51,0,0,0,4-5,.61.61,0,0,0-1.19-.23c-.39,2.05-1.93,3.83-3.57,4.13a6.88,6.88,0,0,1-5.46-2.22.61.61,0,1,0-.93.78,8.32,8.32,0,0,0,6,2.7s0,.05,0,.08l2.53,11.68A5.89,5.89,0,0,0,88.43,209a9.09,9.09,0,0,0-.9.93c-1,1.14-2.55,2.85-4.42,2.84-1.27,0-2.61-.81-4-2.38a.6.6,0,0,0-.9.79c1.61,1.84,3.26,2.78,4.89,2.79a4.34,4.34,0,0,0,1-.1c1.92-.42,3.36-2,4.36-3.14a9.23,9.23,0,0,1,.77-.81,4.06,4.06,0,0,1,2.41-1.08.65.65,0,0,0,.2,0l.06,0a4.11,4.11,0,0,1,2.65,0c.24.07.61.23,1,.41,1.37.61,3.34,1.48,5.26,1.06a4.53,4.53,0,0,0,.92-.31c1.48-.68,2.59-2.21,3.3-4.56A.6.6,0,0,0,104.63,204.58Z"/></g></g></svg>